<?xml version="1.0" encoding="UTF-8" standalone="no"?>
<svg
   viewBox="0 0 16 16"
   xmlns="http://www.w3.org/2000/svg"
>
  <title>Simula</title>
  <circle
     style="fill:#b22f2f;fill-opacity:1;stroke-width:0.787619;stroke-dasharray:none"
     cx="6.9156332"
     cy="3.4927132"
     r="1.3886255"
   />
  <path
     style="fill:#b22525;fill-opacity:1;stroke-width:0.239849;stroke-linejoin:round;paint-order:fill markers stroke"
     d="m 12.799223,5.3411264 c -0.426538,0.00426 -0.639238,0.2593888 -0.780759,0.5933765 h 1.541218 C 13.412075,5.5625697 13.156181,5.354161 12.799223,5.3411264 Z m -1.959704,0.00468 c -0.445585,-0.00767 -0.610009,0.2813345 -0.746406,0.588692 h 1.417858 c -0.01685,-0.035862 -0.03163,-0.072482 -0.05153,-0.1077447 -0.15591,-0.274898 -0.178803,-0.4678924 -0.619922,-0.4809473 z M 4.0031966,5.3598646 C 3.4058804,5.3668993 3.1038744,5.3284813 2.8383049,5.5253854 2.7046278,5.6564261 2.6181064,5.7825248 2.5463012,5.9345029 H 5.3960699 C 5.2896882,5.7467069 5.1521705,5.5789175 5.0228673,5.5253854 4.6181793,5.3973844 4.5349373,5.3626009 4.0031966,5.3598646 Z m 2.2782535,0.085883 c -0.091166,0.00613 -0.097328,0.078369 -0.084322,0.1655209 l 0.00156,0.323234 h 1.592749 V 5.5831615 C 7.7859018,5.4623699 7.7264373,5.4666666 7.6727618,5.4582402 L 6.3251726,5.4473095 c -0.016684,-0.00197 -0.030699,-0.00244 -0.043722,-0.00156 z m 3.3525772,0.034353 -1.1711378,0.010931 C 8.2803137,5.5104245 8.293251,5.5103586 8.3036148,5.7049598 v 0.2295431 h 1.4522107 c -0.00338,-0.083175 -0.00576,-0.1619112 -0.012492,-0.2607733 -0.00881,-0.091299 -0.0249,-0.177922 -0.1093062,-0.193629 z M 2.4651023,6.1328148 C 2.4390258,6.2079058 2.4144681,6.2889946 2.388588,6.381096 2.3559748,6.5111596 2.3324981,6.6317392 2.3120737,6.749614 H 5.6334205 C 5.608346,6.6124138 5.5821414,6.4810336 5.5693983,6.3810968 5.5569707,6.3060763 5.5316022,6.2198661 5.496007,6.1328156 Z m 3.7335874,0 0.00156,0.6167992 H 7.7914371 V 6.1328156 Z m 2.1064866,0 0.00156,0.6167992 H 13.792348 C 13.748612,6.5247717 13.690209,6.3223168 13.625266,6.1328156 H 11.938827 C 11.867761,6.3194228 11.829251,6.4497538 11.771744,6.6137628 11.699683,6.4456964 11.651879,6.2869713 11.595293,6.1328156 h -1.58494 C 9.9413168,6.3009962 9.8726064,6.4647455 9.8073555,6.6215704 9.7827398,6.4090651 9.7736623,6.2628624 9.7667563,6.1328156 Z M 2.2792818,6.9479275 c -0.022904,0.1629028 -0.039789,0.3198376 -0.057776,0.4778242 -0.0073,0.091055 -0.0098,0.1822105 -0.00937,0.2732655 H 3.7439848 C 3.7178954,7.5751656 3.7107621,7.4228386 3.7065084,7.2336851 3.7158666,7.1341517 3.7593327,7.0293643 3.8173761,6.9479275 Z m 1.9019278,0 c 0.020412,0.043703 0.039065,0.092665 0.059338,0.1452211 0.028277,0.1524705 0.0042,0.4071793 0.1171138,0.3903792 l 1.227352,-0.017177 C 5.7192439,7.4655842 5.7080178,7.2206633 5.6662124,6.9479275 Z m 2.0206031,0 0.00156,0.7510897 h 1.5865014 l 0.00156,-0.7510897 z m 2.1064865,0 0.00156,0.7510897 h 5.5668088 c 0.0012,-0.280222 -0.01718,-0.527465 -0.04997,-0.7510897 z M 2.2183826,7.8973299 C 2.2332641,8.1579892 2.272738,8.4189907 2.3214428,8.67965 H 5.3507859 C 5.3491959,8.6772 5.3476959,8.67587 5.3461059,8.6734 5.0146476,8.2750456 4.7172229,8.2791991 4.1687175,8.136242 3.993322,8.0807346 3.8884331,8.0034969 3.8220606,7.8973299 Z m 3.9865532,0 0.00156,0.7823201 H 7.7898757 V 7.8973299 Z m 2.1064865,0 0.00156,0.7823201 H 9.8292169 V 7.9941439 c -0.00539,-0.028173 0.00283,-0.062374 0.018738,-0.096814 z m 2.0159187,0 c 0.0095,0.036155 0.01251,0.067556 0.01405,0.079637 l 0.0031,0.7026828 h 1.511551 l 0.0016,-0.7167364 c 0.0021,-0.022569 0.0061,-0.044307 0.01249,-0.065584 z m 2.034657,0 c 0.0036,0.025115 0.0042,0.052745 0.0016,0.08276 l 0.0031,0.6995597 h 1.509987 V 7.8973299 Z M 2.3714113,8.8764011 c 0.096206,0.2878258 0.2129964,0.5006583 0.3419722,0.6620832 H 5.7848876 C 5.7418258,9.3357034 5.6440292,9.1485547 5.4741458,8.8764011 Z m 3.8366475,0 0.00156,0.6620832 H 7.7898757 V 8.8764011 Z m 2.1064866,0 0.00156,0.6620832 H 9.8276555 V 8.8764011 Z m 2.0299716,0 0.0031,0.6620832 h 1.505304 l 0.0016,-0.6620832 z m 2.022166,0 0.0031,0.6620832 h 1.506865 V 8.8764011 Z M 2.9038886,9.736797 c 0.1725329,0.1459458 0.3606577,0.2309267 0.5527771,0.301373 0.2550301,0.09029 0.5430207,0.258196 0.688629,0.480947 h 1.6395929 c 0.022191,-0.323337 0.039711,-0.5969758 0.026546,-0.78232 z m 3.3072932,0 0.00156,0.78232 h 1.5771339 v -0.78232 z m 2.1064866,0 0.00156,0.78232 h 1.5068642 l 0.00156,-0.78232 z m 2.0299716,0 0.0031,0.78232 h 1.499057 l 0.0031,-0.78232 z m 2.022165,0 0.0031,0.78232 h 1.505302 l -0.0016,-0.78232 z m -8.1401883,0.979071 c 0.0087,0.04183 0.013697,0.08353 0.010931,0.128045 l -0.032792,0.359148 c -0.026358,0.126546 -0.1105974,0.254923 -0.3310416,0.25609 -0.1481226,-0.0068 -0.291183,-0.103056 -0.2873192,-0.245159 0.00601,-0.146379 -0.00129,-0.300254 -0.079637,-0.30918 l -1.3366586,0.01093 c -0.01067,0.206591 0.01259,0.3988 0.05153,0.582446 h 3.4712525 c 0.023234,-0.146842 0.039323,-0.311252 0.064022,-0.582446 0.00557,-0.08488 0.0073,-0.124934 0.012492,-0.199874 z m 1.9846881,0 0.00156,0.78232 h 1.5724477 l 0.00156,-0.78232 z m 2.1064866,0 0.00156,0.78232 h 1.5037411 v -0.78232 z m 2.0299726,0 0.0031,0.78232 h 1.49281 l 0.0031,-0.78232 z m 2.022165,0 0.0031,0.78232 h 1.502179 v -0.78232 z M 2.2745972,11.696501 c 0.034435,0.127761 0.072215,0.254043 0.1093062,0.377887 0.023489,0.06515 0.059814,0.137745 0.1030602,0.212366 h 2.9575133 c 0.02505,-0.04837 0.048633,-0.09841 0.074953,-0.163959 0.066623,-0.180916 0.1076445,-0.307656 0.1374136,-0.426294 z m 3.9428307,0 0.00156,0.590253 h 1.5693247 v -0.590253 z m 2.1064866,0 0.00156,0.590253 h 1.4990567 l 0.00156,-0.590253 z m 2.0315335,0 0.0016,0.590253 h 1.488128 l 0.0016,-0.590253 z m 2.022165,0 0.0016,0.590253 h 1.499056 v -0.590253 z m -9.762605,0.787005 c 0.1055398,0.141577 0.2288125,0.267848 0.3388491,0.332602 0.2214451,0.136913 0.6172764,0.202249 0.8822572,0.188945 0.6431487,0.0098 0.972881,-0.06374 1.186753,-0.213929 0.1336594,-0.135052 0.2231434,-0.219387 0.2951268,-0.307618 z m 3.6039814,0 0.00156,0.259212 c 0.00482,0.05465 -0.022426,0.121012 0.1249214,0.120236 l 1.3038668,0.0078 c 0.1202448,0.0033 0.1119376,-0.04563 0.138975,-0.0812 v -0.306057 z m 2.1064866,0 0.00156,0.243596 c 0.00773,0.103383 0.053485,0.131772 0.1108677,0.135852 h 1.228914 c 0.1283991,0.02205 0.162022,-0.03866 0.1577135,-0.132728 v -0.24672 z m 2.031534,0 0.0016,0.29825 c 0.01132,0.04671 0.01516,0.09698 0.12336,0.09525 l 1.221107,-0.01405 c 0.137477,0.0075 0.141711,-0.04842 0.140536,-0.106183 l 0.0016,-0.273265 z m 2.022165,0 0.0016,0.259212 c 8e-4,0.05487 0.02317,0.12293 0.124921,0.124921 l 1.213299,-0.0016 c 0.144527,-0.0038 0.162846,-0.06355 0.159275,-0.124921 v -0.25765 z" />
</svg>
